<svg xmlns="http://www.w3.org/2000/svg" viewBox="0 0 120 120" width="120" height="120">
  <!-- Gas cloud -->
  <ellipse cx="20" cy="85" rx="15" ry="10" fill="#90EE90" opacity="0.4" />
  <ellipse cx="12" cy="78" rx="10" ry="8" fill="#90EE90" opacity="0.3" />
  <ellipse cx="25" cy="72" rx="8" ry="6" fill="#90EE90" opacity="0.2" />
  <!-- Goose body -->
  <ellipse cx="65" cy="75" rx="33" ry="28" fill="#F5F0E8" />
  <ellipse cx="65" cy="78" rx="30" ry="24" fill="#EDE8DC" />
  <!-- Wings raised -->
  <ellipse cx="42" cy="68" rx="14" ry="20" fill="#E8E0D0" transform="rotate(-15 42 68)" />
  <ellipse cx="88" cy="68" rx="14" ry="20" fill="#E8E0D0" transform="rotate(15 88 68)" />
  <!-- Neck -->
  <path d="M60 55 Q55 35 60 20" stroke="#F5F0E8" stroke-width="14" fill="none" stroke-linecap="round" />
  <path d="M60 55 Q55 35 60 20" stroke="#EDE8DC" stroke-width="10" fill="none" stroke-linecap="round" />
  <!-- Head -->
  <circle cx="60" cy="18" r="12" fill="#F5F0E8" />
  <!-- Beak -->
  <path d="M68 18 L82 16 L68 20 Z" fill="#F4A030" />
  <!-- Squinting eyes -->
  <path d="M53 14 L58 16" stroke="#1a1a2e" stroke-width="2.5" stroke-linecap="round" />
  <path d="M58 14 L53 16" stroke="#1a1a2e" stroke-width="2.5" stroke-linecap="round" />
  <!-- Blush -->
  <circle cx="52" cy="21" r="4" fill="#FFB5B5" opacity="0.5" />
  <!-- Feet -->
  <path d="M50 100 L40 108 L50 105 L45 112 L55 105 L50 100" fill="#F4A030" />
  <path d="M80 100 L70 108 L80 105 L75 112 L85 105 L80 100" fill="#F4A030" />
</svg>
